<svg width="53" height="46" viewBox="0 0 53 46" fill="none" xmlns="http://www.w3.org/2000/svg">
<path d="M50.2105 10.9378V5.11111C50.2105 2.3 47.7 0 44.6316 0H5.57895C2.48263 0 0 2.3 0 5.11111V40.8889C0 43.7 2.48263 46 5.57895 46H44.6316C47.7 46 50.2105 43.7 50.2105 40.8889V35.0622C51.8563 34.1678 53 32.5578 53 30.6667V15.3333C53 13.4422 51.8563 11.8322 50.2105 10.9378ZM47.4211 15.3333V30.6667H27.8947V15.3333H47.4211ZM5.57895 40.8889V5.11111H44.6316V10.2222H27.8947C24.8263 10.2222 22.3158 12.5222 22.3158 15.3333V30.6667C22.3158 33.4778 24.8263 35.7778 27.8947 35.7778H44.6316V40.8889H5.57895Z" fill="#D63600"/>
</svg>
