<svg width="16" height="10" viewBox="0 0 16 10" fill="none" xmlns="http://www.w3.org/2000/svg">
<path d="M15.8341 4.60718C15.8344 4.60059 15.8344 4.59399 15.8341 4.58739C15.8344 4.58382 15.8344 4.58023 15.8341 4.57667C15.8343 4.57172 15.8343 4.56676 15.8341 4.56181C15.8341 4.55603 15.8341 4.55026 15.8341 4.54449C15.8152 4.41765 15.7576 4.29977 15.669 4.20704C15.1531 3.59248 14.5777 3.03036 13.9512 2.52885C12.6637 1.3985 11.1272 0.588515 9.467 0.165008C8.96183 0.0545072 8.44617 -0.000806487 7.92906 8.88386e-06C7.47457 0.000580031 7.02108 0.0428229 6.5743 0.126232C5.69347 0.304517 4.84474 0.615248 4.05701 1.04784C2.81006 1.7277 1.67636 2.59724 0.696508 3.62535C0.514168 3.81346 0.332651 4.00489 0.165987 4.2095C0.0591305 4.32815 0 4.48218 0 4.64185C0 4.80153 0.0591305 4.95553 0.165987 5.07418C0.68214 5.68858 1.25751 6.25068 1.88378 6.75237C3.17154 7.88288 4.70838 8.69285 6.36886 9.11618C6.87427 9.22687 7.39023 9.28221 7.90761 9.28121C8.36184 9.28075 8.81507 9.2385 9.26155 9.15498C10.1425 8.97626 10.9915 8.66556 11.7797 8.23338C13.026 7.55302 14.1594 6.6835 15.1393 5.65584C15.3225 5.46773 15.5032 5.27633 15.6699 5.07171C15.7582 4.97883 15.8158 4.86101 15.8349 4.73426C15.8349 4.72849 15.8349 4.72269 15.8349 4.71691V4.70208C15.8349 4.70208 15.8349 4.69546 15.8349 4.69216C15.8345 4.68557 15.8345 4.67897 15.8349 4.67237C15.8349 4.66247 15.8349 4.65175 15.8349 4.64102C15.8349 4.6303 15.8349 4.62038 15.8341 4.60718ZM6.48602 2.8663C6.64781 2.86744 6.80564 2.91646 6.93961 3.00718C7.07358 3.09789 7.17769 3.22625 7.23882 3.37605C7.29994 3.52585 7.31535 3.69039 7.28308 3.84894C7.25082 4.00748 7.17234 4.15293 7.05753 4.26694C6.94273 4.38094 6.79673 4.4584 6.63797 4.48955C6.4792 4.52069 6.31476 4.50413 6.16539 4.44196C6.01602 4.37978 5.88841 4.27476 5.79863 4.14016C5.70886 4.00556 5.66095 3.84737 5.66095 3.68558C5.66269 3.4679 5.75039 3.25974 5.90493 3.10643C6.05947 2.95313 6.26833 2.86712 6.48602 2.86713V2.8663ZM14.0618 4.63853C13.1906 5.55612 12.1818 6.33246 11.0718 6.93965C10.4175 7.30061 9.71272 7.56122 8.98103 7.71275C8.62513 7.77924 8.26389 7.81294 7.90184 7.81342C7.49339 7.81311 7.08619 7.76856 6.68734 7.68057C5.25797 7.30742 3.93675 6.60244 2.83096 5.62286C2.4553 5.31683 2.0972 4.98985 1.75837 4.64349L1.76497 4.63689C2.63606 3.71884 3.64518 2.94244 4.75585 2.33577C4.93901 2.23842 5.11805 2.15095 5.29379 2.07092C4.96092 2.57248 4.78354 3.16118 4.7839 3.76315C4.7839 4.59468 5.11422 5.39212 5.7022 5.9801C6.29017 6.56807 7.08764 6.89841 7.91917 6.89841C8.75069 6.89841 9.54815 6.56807 10.1361 5.9801C10.7241 5.39212 11.0544 4.59468 11.0544 3.76315C11.0545 3.16212 10.8774 2.5744 10.5454 2.07341C11.4284 2.49092 12.253 3.0221 12.9983 3.65342C13.374 3.9594 13.7321 4.28635 14.0709 4.63276L14.0618 4.63853Z" fill="#6D6D6D"/>
</svg>
