<svg width="60" height="60" viewBox="0 0 60 60" fill="none" xmlns="http://www.w3.org/2000/svg">
<rect x="1" y="1" width="58" height="58" rx="29" fill="white" stroke="#D63600" stroke-width="2"/>
<path d="M19.8182 27V28H20.8182H23.9091V29H20.8182H19.8182V30V33.5H19.0909V30V29H18.0909H15V28H18.0909H19.0909V27V23.5H19.8182V27ZM23.1818 39C23.1818 38.3298 23.4784 37.6929 24.0871 37.0743C24.7054 36.4461 25.6044 35.8838 26.6736 35.4135C28.8177 34.4705 31.4077 34 33.0909 34C34.7741 34 37.3642 34.4705 39.5082 35.4135C40.5774 35.8838 41.4765 36.4461 42.0947 37.0743C42.7034 37.6929 43 38.3298 43 39V41H23.1818V39ZM36.2079 27.57C35.3635 28.4988 34.2399 29 33.0909 29C31.9419 29 30.8183 28.4988 29.9739 27.57C29.1267 26.638 28.6364 25.3552 28.6364 24C28.6364 22.6448 29.1267 21.362 29.9739 20.43C30.8183 19.5012 31.9419 19 33.0909 19C34.2399 19 35.3636 19.5012 36.2079 20.43C37.0552 21.362 37.5455 22.6448 37.5455 24C37.5455 25.3552 37.0552 26.638 36.2079 27.57Z" stroke="#D63600" stroke-width="2"/>
</svg>
