<svg width="15" height="14" viewBox="0 0 15 14" fill="none" xmlns="http://www.w3.org/2000/svg">
<path d="M5.12934 1.4796C4.89997 1.4796 4.68 1.55745 4.51781 1.69602C4.35562 1.83459 4.26451 2.02253 4.26451 2.2185C4.26451 2.41447 4.35562 2.60241 4.51781 2.74098C4.68 2.87955 4.89997 2.9574 5.12934 2.9574C5.35871 2.9574 5.57868 2.87955 5.74087 2.74098C5.90306 2.60241 5.99417 2.41447 5.99417 2.2185C5.99417 2.02253 5.90306 1.83459 5.74087 1.69602C5.57868 1.55745 5.35871 1.4796 5.12934 1.4796ZM2.68186 1.4796C2.86054 1.04696 3.19189 0.672311 3.63024 0.40731C4.06859 0.142308 4.59235 0 5.12934 0C5.66633 0 6.19009 0.142308 6.62844 0.40731C7.06679 0.672311 7.39814 1.04696 7.57682 1.4796H13.7777C14.007 1.4796 14.227 1.55745 14.3892 1.69602C14.5514 1.83459 14.6425 2.02253 14.6425 2.2185C14.6425 2.41447 14.5514 2.60241 14.3892 2.74098C14.227 2.87955 14.007 2.9574 13.7777 2.9574H7.57682C7.39814 3.39005 7.06679 3.76469 6.62844 4.02969C6.19009 4.2947 5.66633 4.437 5.12934 4.437C4.59235 4.437 4.06859 4.2947 3.63024 4.02969C3.19189 3.76469 2.86054 3.39005 2.68186 2.9574H1.67001C1.44064 2.9574 1.22067 2.87955 1.05848 2.74098C0.896292 2.60241 0.805176 2.41447 0.805176 2.2185C0.805176 2.02253 0.896292 1.83459 1.05848 1.69602C1.22067 1.55745 1.44064 1.4796 1.67001 1.4796H2.68186ZM10.3183 5.91299C10.089 5.91299 9.869 5.99083 9.70681 6.1294C9.54462 6.26797 9.45351 6.45592 9.45351 6.65188C9.45351 6.84785 9.54462 7.03579 9.70681 7.17436C9.869 7.31293 10.089 7.39078 10.3183 7.39078C10.5477 7.39078 10.7677 7.31293 10.9299 7.17436C11.0921 7.03579 11.1832 6.84785 11.1832 6.65188C11.1832 6.45592 11.0921 6.26797 10.9299 6.1294C10.7677 5.99083 10.5477 5.91299 10.3183 5.91299ZM7.87086 5.91299C8.04954 5.48034 8.38089 5.10569 8.81924 4.84069C9.25759 4.57569 9.78135 4.43338 10.3183 4.43338C10.8553 4.43338 11.3791 4.57569 11.8174 4.84069C12.2558 5.10569 12.5871 5.48034 12.7658 5.91299H13.7777C14.007 5.91299 14.227 5.99083 14.3892 6.1294C14.5514 6.26797 14.6425 6.45592 14.6425 6.65188C14.6425 6.84785 14.5514 7.03579 14.3892 7.17436C14.227 7.31293 14.007 7.39078 13.7777 7.39078H12.7658C12.5871 7.82343 12.2558 8.19807 11.8174 8.46307C11.3791 8.72808 10.8553 8.87039 10.3183 8.87039C9.78135 8.87039 9.25759 8.72808 8.81924 8.46307C8.38089 8.19807 8.04954 7.82343 7.87086 7.39078H1.67001C1.44064 7.39078 1.22067 7.31293 1.05848 7.17436C0.896292 7.03579 0.805176 6.84785 0.805176 6.65188C0.805176 6.45592 0.896292 6.26797 1.05848 6.1294C1.22067 5.99083 1.44064 5.91299 1.67001 5.91299H7.87086ZM5.12934 10.3464C4.89997 10.3464 4.68 10.4242 4.51781 10.5628C4.35562 10.7014 4.26451 10.8893 4.26451 11.0853C4.26451 11.2812 4.35562 11.4692 4.51781 11.6077C4.68 11.7463 4.89997 11.8242 5.12934 11.8242C5.35871 11.8242 5.57868 11.7463 5.74087 11.6077C5.90306 11.4692 5.99417 11.2812 5.99417 11.0853C5.99417 10.8893 5.90306 10.7014 5.74087 10.5628C5.57868 10.4242 5.35871 10.3464 5.12934 10.3464ZM2.68186 10.3464C2.86054 9.91372 3.19189 9.53907 3.63024 9.27407C4.06859 9.00907 4.59235 8.86676 5.12934 8.86676C5.66633 8.86676 6.19009 9.00907 6.62844 9.27407C7.06679 9.53907 7.39814 9.91372 7.57682 10.3464H13.7777C14.007 10.3464 14.227 10.4242 14.3892 10.5628C14.5514 10.7014 14.6425 10.8893 14.6425 11.0853C14.6425 11.2812 14.5514 11.4692 14.3892 11.6077C14.227 11.7463 14.007 11.8242 13.7777 11.8242H7.57682C7.39814 12.2568 7.06679 12.6315 6.62844 12.8965C6.19009 13.1615 5.66633 13.3038 5.12934 13.3038C4.59235 13.3038 4.06859 13.1615 3.63024 12.8965C3.19189 12.6315 2.86054 12.2568 2.68186 11.8242H1.67001C1.44064 11.8242 1.22067 11.7463 1.05848 11.6077C0.896292 11.4692 0.805176 11.2812 0.805176 11.0853C0.805176 10.8893 0.896292 10.7014 1.05848 10.5628C1.22067 10.4242 1.44064 10.3464 1.67001 10.3464H2.68186Z" fill="#D63600"/>
</svg>
