<svg width="11" height="11" viewBox="0 0 11 11" fill="none" xmlns="http://www.w3.org/2000/svg">
<path d="M5.93029 9.21C6.97883 9.21 7.98442 8.82187 8.72585 8.13098C9.46728 7.4401 9.88381 6.50306 9.88381 5.526C9.88381 4.54894 9.46728 3.6119 8.72585 2.92102C7.98442 2.23013 6.97883 1.842 5.93029 1.842C4.88175 1.842 3.87616 2.23013 3.13473 2.92102C2.3933 3.6119 1.97677 4.54894 1.97677 5.526C1.97677 6.50306 2.3933 7.4401 3.13473 8.13098C3.87616 8.82187 4.88175 9.21 5.93029 9.21ZM5.93029 0.921C6.57927 0.921 7.2219 1.04011 7.82148 1.27153C8.42105 1.50296 8.96585 1.84216 9.42474 2.26977C9.88364 2.69739 10.2477 3.20504 10.496 3.76374C10.7444 4.32245 10.8722 4.92126 10.8722 5.526C10.8722 6.74732 10.3515 7.91862 9.42474 8.78223C8.49796 9.64583 7.24096 10.131 5.93029 10.131C3.19742 10.131 0.988388 8.05875 0.988388 5.526C0.988388 4.30468 1.50905 3.13338 2.43584 2.26977C3.36262 1.40617 4.61962 0.921 5.93029 0.921V0.921ZM6.17739 3.2235V5.64113L8.40124 6.87066L8.0306 7.43708L5.4361 5.9865V3.2235H6.17739Z" fill="#7B809A"/>
</svg>
