<svg width="53" height="45" viewBox="0 0 53 45" fill="none" xmlns="http://www.w3.org/2000/svg">
<path d="M38.75 43H51V37.875C51 33.6292 47.7094 30.1875 43.65 30.1875C41.3088 30.1875 39.2231 31.3324 37.8773 33.1162M38.75 43H14.25M38.75 43V37.875C38.75 36.1935 38.4403 34.5873 37.8773 33.1162M14.25 43H2V37.875C2 33.6292 5.29072 30.1875 9.35 30.1875C11.6912 30.1875 13.7768 31.3324 15.1228 33.1162M14.25 43V37.875C14.25 36.1935 14.5597 34.5873 15.1228 33.1162M15.1228 33.1162C16.9291 28.3963 21.3423 25.0625 26.5 25.0625C31.6577 25.0625 36.0709 28.3963 37.8773 33.1162M33.85 9.6875C33.85 13.9332 30.5594 17.375 26.5 17.375C22.4406 17.375 19.15 13.9332 19.15 9.6875C19.15 5.44182 22.4406 2 26.5 2C30.5594 2 33.85 5.44182 33.85 9.6875ZM48.55 17.375C48.55 20.2055 46.3563 22.5 43.65 22.5C40.9437 22.5 38.75 20.2055 38.75 17.375C38.75 14.5445 40.9437 12.25 43.65 12.25C46.3563 12.25 48.55 14.5445 48.55 17.375ZM14.25 17.375C14.25 20.2055 12.0562 22.5 9.35 22.5C6.6438 22.5 4.45 20.2055 4.45 17.375C4.45 14.5445 6.6438 12.25 9.35 12.25C12.0562 12.25 14.25 14.5445 14.25 17.375Z" stroke="#D63600" stroke-width="3" stroke-linecap="round" stroke-linejoin="round"/>
</svg>
