<svg width="59" height="42" viewBox="0 0 59 42" fill="none" xmlns="http://www.w3.org/2000/svg">
<path d="M46.8943 16.578C46.8943 25.1506 39.7021 32.156 30.76 32.156C21.8178 32.156 14.6256 25.1506 14.6256 16.578C14.6256 8.00537 21.8178 1 30.76 1C39.7021 1 46.8943 8.00537 46.8943 16.578Z" stroke="#D63600" stroke-width="2"/>
<line y1="-1" x2="19.2376" y2="-1" transform="matrix(0.740829 0.671694 -0.695724 0.718309 42.6723 28.9976)" stroke="#D63600" stroke-width="2"/>
<line x1="2.25079" y1="27.63" x2="2.25079" y2="40.524" stroke="#D63600" stroke-width="2"/>
<line x1="6.05843" y1="25.788" x2="6.05843" y2="40.524" stroke="#D63600" stroke-width="2"/>
<line x1="9.86607" y1="22.104" x2="9.86607" y2="40.524" stroke="#D63600" stroke-width="2"/>
<line x1="14.6256" y1="26.709" x2="14.6256" y2="40.524" stroke="#D63600" stroke-width="2"/>
<line x1="18.4332" y1="30.393" x2="18.4332" y2="40.524" stroke="#D63600" stroke-width="2"/>
<line x1="43.1829" y1="32.235" x2="43.1829" y2="40.524" stroke="#D63600" stroke-width="2"/>
<line x1="55.5577" y1="6.44701" x2="55.5577" y2="35.919" stroke="#D63600" stroke-width="2"/>
<line x1="51.7501" y1="8.289" x2="51.7501" y2="32.235" stroke="#D63600" stroke-width="2"/>
<line x1="22.2409" y1="33.156" x2="22.2409" y2="40.524" stroke="#D63600" stroke-width="2"/>
<line x1="27.0004" y1="34.998" x2="27.0004" y2="40.524" stroke="#D63600" stroke-width="2"/>
<line x1="30.8081" y1="23.025" x2="30.8081" y2="30.393" stroke="#D63600" stroke-width="2"/>
<line x1="27.0004" y1="24.867" x2="27.0004" y2="29.472" stroke="#D63600" stroke-width="2"/>
<line x1="22.2409" y1="23.025" x2="22.2409" y2="26.709" stroke="#D63600" stroke-width="2"/>
<line x1="18.4332" y1="19.341" x2="18.4332" y2="23.025" stroke="#D63600" stroke-width="2"/>
<line x1="30.8081" y1="36.84" x2="30.8081" y2="40.524" stroke="#D63600" stroke-width="2"/>
<line x1="46.9905" y1="34.998" x2="46.9905" y2="40.524" stroke="#D63600" stroke-width="2"/>
<line x1="46.9905" y1="24.867" x2="46.9905" y2="28.551" stroke="#D63600" stroke-width="2"/>
<line x1="51.7501" y1="38.682" x2="51.7501" y2="40.524" stroke="#D63600" stroke-width="2"/>
<line x1="34.6157" y1="34.998" x2="34.6157" y2="40.524" stroke="#D63600" stroke-width="2"/>
<line x1="39.3752" y1="33.156" x2="39.3752" y2="40.524" stroke="#D63600" stroke-width="2"/>
<line x1="43.1829" y1="12.894" x2="43.1829" y2="22.104" stroke="#D63600" stroke-width="2"/>
<line x1="39.3752" y1="15.657" x2="39.3752" y2="26.709" stroke="#D63600" stroke-width="2"/>
<line x1="34.6157" y1="18.42" x2="34.6157" y2="29.472" stroke="#D63600" stroke-width="2"/>
<mask id="path-26-inside-1_1_218" fill="white">
<ellipse cx="2.2027" cy="23.025" rx="1.90382" ry="1.842"/>
</mask>
<ellipse cx="2.2027" cy="23.025" rx="1.90382" ry="1.842" fill="#2C2C2C"/>
<path d="M2.10652 23.025C2.10652 22.9972 2.11285 22.9672 2.12436 22.9409C2.13519 22.9161 2.14814 22.8999 2.15822 22.8901C2.16827 22.8804 2.17791 22.8747 2.18627 22.8712C2.19064 22.8695 2.19463 22.8683 2.19796 22.8677C2.20138 22.867 2.20315 22.867 2.2027 22.867V26.867C4.29598 26.867 6.10652 25.2086 6.10652 23.025H2.10652ZM2.2027 22.867C2.20225 22.867 2.20402 22.867 2.20745 22.8677C2.21077 22.8683 2.21477 22.8695 2.21914 22.8712C2.2275 22.8747 2.23714 22.8804 2.24718 22.8901C2.25726 22.8999 2.27021 22.9161 2.28104 22.9409C2.29255 22.9672 2.29888 22.9972 2.29888 23.025H-1.70112C-1.70112 25.2086 0.109425 26.867 2.2027 26.867V22.867ZM2.29888 23.025C2.29888 23.0528 2.29255 23.0828 2.28104 23.1091C2.27021 23.1339 2.25726 23.1501 2.24718 23.1599C2.23714 23.1696 2.2275 23.1753 2.21914 23.1788C2.21477 23.1805 2.21077 23.1817 2.20745 23.1823C2.20402 23.183 2.20225 23.183 2.2027 23.183V19.183C0.109425 19.183 -1.70112 20.8414 -1.70112 23.025H2.29888ZM2.2027 23.183C2.20315 23.183 2.20138 23.183 2.19796 23.1823C2.19463 23.1817 2.19064 23.1805 2.18627 23.1788C2.17791 23.1753 2.16827 23.1696 2.15822 23.1599C2.14814 23.1501 2.13519 23.1339 2.12436 23.1091C2.11285 23.0828 2.10652 23.0528 2.10652 23.025H6.10652C6.10652 20.8414 4.29598 19.183 2.2027 19.183V23.183Z" fill="#D63600" mask="url(#path-26-inside-1_1_218)"/>
<mask id="path-28-inside-2_1_218" fill="white">
<ellipse cx="27.9042" cy="21.183" rx="1.90382" ry="1.842"/>
</mask>
<ellipse cx="27.9042" cy="21.183" rx="1.90382" ry="1.842" fill="#2C2C2C"/>
<path d="M27.8081 21.183C27.8081 21.1552 27.8144 21.1252 27.8259 21.0989C27.8367 21.0741 27.8497 21.0579 27.8598 21.0481C27.8698 21.0384 27.8794 21.0327 27.8878 21.0292C27.8922 21.0275 27.8962 21.0263 27.8995 21.0257C27.9029 21.025 27.9047 21.025 27.9042 21.025V25.025C29.9975 25.025 31.8081 23.3666 31.8081 21.183H27.8081ZM27.9042 21.025C27.9038 21.025 27.9056 21.025 27.909 21.0257C27.9123 21.0263 27.9163 21.0275 27.9207 21.0292C27.929 21.0327 27.9387 21.0384 27.9487 21.0481C27.9588 21.0579 27.9718 21.0741 27.9826 21.0989C27.9941 21.1252 28.0004 21.1552 28.0004 21.183H24.0004C24.0004 23.3666 25.811 25.025 27.9042 25.025V21.025ZM28.0004 21.183C28.0004 21.2108 27.9941 21.2408 27.9826 21.2671C27.9718 21.2919 27.9588 21.3081 27.9487 21.3179C27.9387 21.3276 27.929 21.3333 27.9207 21.3368C27.9163 21.3385 27.9123 21.3397 27.909 21.3403C27.9056 21.341 27.9038 21.341 27.9042 21.341V17.341C25.811 17.341 24.0004 18.9994 24.0004 21.183H28.0004ZM27.9042 21.341C27.9047 21.341 27.9029 21.341 27.8995 21.3403C27.8962 21.3397 27.8922 21.3385 27.8878 21.3368C27.8794 21.3333 27.8698 21.3276 27.8598 21.3179C27.8497 21.3081 27.8367 21.2919 27.8259 21.2671C27.8144 21.2408 27.8081 21.2108 27.8081 21.183H31.8081C31.8081 18.9994 29.9975 17.341 27.9042 17.341V21.341Z" fill="#D63600" mask="url(#path-28-inside-2_1_218)"/>
<mask id="path-30-inside-3_1_218" fill="white">
<ellipse cx="39.3271" cy="11.973" rx="1.90382" ry="1.842"/>
</mask>
<ellipse cx="39.3271" cy="11.973" rx="1.90382" ry="1.842" fill="#2C2C2C"/>
<path d="M39.231 11.973C39.231 11.9452 39.2373 11.9152 39.2488 11.8889C39.2596 11.8641 39.2726 11.8479 39.2827 11.8381C39.2927 11.8284 39.3024 11.8227 39.3107 11.8193C39.3151 11.8175 39.3191 11.8163 39.3224 11.8157C39.3258 11.815 39.3276 11.815 39.3272 11.815V15.815C41.4204 15.815 43.231 14.1566 43.231 11.973H39.231ZM39.3272 11.815C39.3267 11.815 39.3285 11.815 39.3319 11.8157C39.3352 11.8163 39.3392 11.8175 39.3436 11.8193C39.3519 11.8227 39.3616 11.8284 39.3716 11.8381C39.3817 11.8479 39.3947 11.8641 39.4055 11.8889C39.417 11.9152 39.4233 11.9452 39.4233 11.973H35.4233C35.4233 14.1566 37.2339 15.815 39.3272 15.815V11.815ZM39.4233 11.973C39.4233 12.0008 39.417 12.0308 39.4055 12.0571C39.3947 12.0819 39.3817 12.0981 39.3716 12.1079C39.3616 12.1176 39.3519 12.1233 39.3436 12.1268C39.3392 12.1286 39.3352 12.1297 39.3319 12.1304C39.3285 12.131 39.3267 12.131 39.3272 12.131V8.13101C37.2339 8.13101 35.4233 9.78942 35.4233 11.973H39.4233ZM39.3272 12.131C39.3276 12.131 39.3258 12.131 39.3224 12.1304C39.3191 12.1297 39.3151 12.1286 39.3107 12.1268C39.3024 12.1233 39.2927 12.1176 39.2827 12.1079C39.2726 12.0981 39.2596 12.0819 39.2488 12.0571C39.2373 12.0308 39.231 12.0008 39.231 11.973H43.231C43.231 9.78942 41.4204 8.13101 39.3272 8.13101V12.131Z" fill="#D63600" mask="url(#path-30-inside-3_1_218)"/>
<mask id="path-32-inside-4_1_218" fill="white">
<ellipse cx="54.5577" cy="1.842" rx="1.90382" ry="1.842"/>
</mask>
<ellipse cx="54.5577" cy="1.842" rx="1.90382" ry="1.842" fill="#2C2C2C"/>
<path d="M54.4615 1.842C54.4615 1.8142 54.4678 1.78421 54.4794 1.75788C54.4902 1.7331 54.5031 1.71688 54.5132 1.70713C54.5233 1.69741 54.5329 1.69166 54.5413 1.68824C54.5456 1.68645 54.5496 1.68532 54.5529 1.68466C54.5564 1.68398 54.5581 1.684 54.5577 1.684V5.684C56.651 5.684 58.4615 4.02559 58.4615 1.842H54.4615ZM54.5577 1.684C54.5572 1.684 54.559 1.68398 54.5624 1.68466C54.5658 1.68532 54.5698 1.68645 54.5741 1.68824C54.5825 1.69166 54.5921 1.69741 54.6022 1.70713C54.6123 1.71688 54.6252 1.7331 54.636 1.75788C54.6475 1.78421 54.6539 1.8142 54.6539 1.842H50.6539C50.6539 4.02559 52.4644 5.684 54.5577 5.684V1.684ZM54.6539 1.842C54.6539 1.8698 54.6475 1.89979 54.636 1.92612C54.6252 1.9509 54.6123 1.96712 54.6022 1.97687C54.5921 1.98659 54.5825 1.99234 54.5741 1.99576C54.5698 1.99755 54.5658 1.99868 54.5624 1.99934C54.559 2.00002 54.5572 2 54.5577 2V-2C52.4644 -2 50.6539 -0.341593 50.6539 1.842H54.6539ZM54.5577 2C54.5581 2 54.5564 2.00002 54.5529 1.99934C54.5496 1.99868 54.5456 1.99755 54.5413 1.99576C54.5329 1.99234 54.5233 1.98659 54.5132 1.97687C54.5031 1.96712 54.4902 1.9509 54.4794 1.92612C54.4678 1.89979 54.4615 1.8698 54.4615 1.842H58.4615C58.4615 -0.341593 56.651 -2 54.5577 -2V2Z" fill="#D63600" mask="url(#path-32-inside-4_1_218)"/>
<line y1="-1" x2="15.2538" y2="-1" transform="matrix(0.885429 -0.464775 0.489094 0.872231 1.29867 24.0459)" stroke="#D63600" stroke-width="2"/>
<line y1="-1" x2="12.5975" y2="-1" transform="matrix(0.770108 -0.637913 0.662682 0.7489 29.4418 21.0742)" stroke="#D63600" stroke-width="2"/>
<line x1="1" y1="-1" x2="11.707" y2="-1" transform="matrix(0.922751 0.385397 -0.40745 0.913227 15.8285 16.7808)" stroke="#D63600" stroke-width="2" stroke-linecap="round"/>
<line y1="-1" x2="17.3943" y2="-1" transform="matrix(0.832331 -0.554278 0.579671 0.814851 40.0799 12.4043)" stroke="#D63600" stroke-width="2"/>
</svg>
