<svg width="50" height="50" viewBox="0 0 50 50" fill="none" xmlns="http://www.w3.org/2000/svg">
<path d="M48.7582 17.2547C49.5518 19.6934 49.9807 22.2966 49.9807 25C49.9807 38.8071 38.7921 50 24.9903 50C11.1886 50 0 38.8071 0 25C0 11.1929 11.1886 0 24.9903 0C27.7067 0 30.3222 0.433614 32.7706 1.2354L29.5018 4.50532C29.3209 4.68631 29.1563 4.88059 29.0088 5.08586C27.7101 4.82495 26.3661 4.68806 24.9903 4.68806C13.7767 4.68806 4.68624 13.7821 4.68624 25C4.68624 36.218 13.7767 45.3119 24.9903 45.3119C36.2041 45.3119 45.2945 36.218 45.2945 25C45.2945 23.637 45.1601 22.3053 44.9043 21.0175C45.1161 20.8669 45.3163 20.6979 45.5025 20.5116L48.7582 17.2547ZM40.3083 21.8848C40.5132 22.8944 40.6207 23.9393 40.6207 25.0094C40.6207 33.6399 33.627 40.6364 24.9998 40.6364C16.3727 40.6364 9.37899 33.6399 9.37899 25.0094C9.37899 16.3789 16.3727 9.38253 24.9998 9.38253C26.0715 9.38253 27.1184 9.49051 28.1294 9.69623L28.13 14.5253C27.1384 14.2295 26.0874 14.0706 24.9998 14.0706C18.9608 14.0706 14.0652 18.9681 14.0652 25.0094C14.0652 31.0509 18.9608 35.9483 24.9998 35.9483C31.0389 35.9483 35.9345 31.0509 35.9345 25.0094C35.9345 23.9237 35.7764 22.8748 35.4818 21.8848H40.3083ZM24.9998 29.6976C27.588 29.6976 29.6861 27.5986 29.6861 25.0095C29.6861 24.5912 29.6312 24.1856 29.5284 23.7997L34.4727 18.8535C34.5036 18.8225 34.5336 18.7909 34.5623 18.7587H42.1897C42.6039 18.7587 43.0013 18.5941 43.2941 18.301L49.5424 12.0503C49.9891 11.6034 50.1229 10.9312 49.881 10.3473C49.6392 9.76336 49.0697 9.38263 48.438 9.38259L40.627 9.38244V1.56894C40.627 0.936893 40.2464 0.367107 39.6625 0.125234C39.0789 -0.11667 38.4069 0.017033 37.9602 0.46393L31.7115 6.71471C31.4185 7.00781 31.2538 7.40536 31.2542 7.81988L31.2548 15.4479C31.2223 15.4771 31.1904 15.5073 31.1592 15.5386L26.218 20.4814C25.8297 20.3771 25.4213 20.3214 24.9998 20.3214C22.4117 20.3214 20.3136 22.4203 20.3136 25.0095C20.3136 27.5986 22.4117 29.6976 24.9998 29.6976Z" fill="#D63600"/>
</svg>
