<svg width="60" height="60" viewBox="0 0 60 60" fill="none" xmlns="http://www.w3.org/2000/svg">
<rect x="1" y="1" width="58" height="58" rx="29" fill="white" stroke="#D63600" stroke-width="2"/>
<path d="M28.8733 20.6103V20.6102L28.8676 20.6103C28.1973 20.6216 27.5469 20.8387 26.9982 21.2318C26.4497 21.6247 26.0279 22.1752 25.7829 22.8121C25.5379 23.449 25.4795 24.1459 25.6145 24.8162C25.7495 25.4865 26.0725 26.103 26.5457 26.5872C27.0191 27.0716 27.622 27.4021 28.2798 27.5338C28.9377 27.6657 29.6181 27.5922 30.2348 27.3236C30.8512 27.0552 31.3744 26.6047 31.741 26.0318C32.1074 25.4592 32.3019 24.7886 32.302 24.1042H32.302L32.302 24.099C32.2925 23.1732 31.931 22.2851 31.2907 21.63C30.6498 20.9742 29.781 20.6052 28.8733 20.6103ZM28.8797 28.2164C28.1082 28.2076 27.3547 27.9619 26.7138 27.5077C26.0721 27.0529 25.5713 26.4088 25.2775 25.6543C24.9836 24.8997 24.9107 24.0706 25.0687 23.272C25.2267 22.4735 25.6078 21.7441 26.1614 21.1745C26.7147 20.6051 27.4153 20.221 28.1737 20.0674C28.9321 19.9137 29.7174 19.9966 30.4318 20.3065C31.1464 20.6166 31.7599 21.1409 32.1929 21.8166C32.6258 22.4921 32.858 23.2874 32.8583 24.1025C32.8505 25.2048 32.423 26.2551 31.675 27.0247C30.9278 27.7936 29.9223 28.2197 28.8797 28.2164Z" fill="white" stroke="#D63600"/>
<path d="M28.8733 20.6103V20.6102L28.8676 20.6103C28.1973 20.6216 27.5469 20.8387 26.9982 21.2318C26.4497 21.6247 26.0279 22.1752 25.7829 22.8121C25.5379 23.449 25.4795 24.1459 25.6145 24.8162C25.7495 25.4865 26.0725 26.103 26.5457 26.5872C27.0191 27.0716 27.622 27.4021 28.2798 27.5338C28.9377 27.6657 29.6181 27.5922 30.2348 27.3236C30.8512 27.0552 31.3744 26.6047 31.741 26.0318C32.1074 25.4592 32.3019 24.7886 32.302 24.1042H32.302L32.302 24.099C32.2925 23.1732 31.931 22.2851 31.2907 21.63C30.6498 20.9742 29.781 20.6052 28.8733 20.6103ZM28.8797 28.2164C28.1082 28.2076 27.3547 27.9619 26.7138 27.5077C26.0721 27.0529 25.5713 26.4088 25.2775 25.6543C24.9836 24.8997 24.9107 24.0706 25.0687 23.272C25.2267 22.4735 25.6078 21.7441 26.1614 21.1745C26.7147 20.6051 27.4153 20.221 28.1737 20.0674C28.9321 19.9137 29.7174 19.9966 30.4318 20.3065C31.1464 20.6166 31.7599 21.1409 32.1929 21.8166C32.6258 22.4921 32.858 23.2874 32.8583 24.1025C32.8505 25.2048 32.423 26.2551 31.675 27.0247C30.9278 27.7936 29.9223 28.2197 28.8797 28.2164Z" fill="white" stroke="#D63600"/>
<path d="M21.2673 32.7145V32.7073L21.2671 32.7002C21.2621 32.5254 21.3035 32.3536 21.3855 32.2038C21.4662 32.0563 21.5824 31.9368 21.7197 31.8562C24.6122 30.3015 27.8969 29.7345 31.1092 30.2277L31.136 30.8611C28.0475 30.3906 24.8894 30.917 22.0924 32.3764L21.8236 32.5166V32.8197V35.5951C21.8236 35.6832 21.7898 35.7641 21.7353 35.8207C21.6815 35.8766 21.6128 35.9042 21.5455 35.9042C21.4781 35.9042 21.4094 35.8766 21.3556 35.8207C21.3012 35.764 21.2673 35.6832 21.2673 35.5951V32.7145Z" fill="white" stroke="#D63600"/>
<path d="M34.5079 33.3212V33.8212H35.0079H40.2216C40.289 33.8212 40.3577 33.8488 40.4115 33.9048C40.466 33.9614 40.4998 34.0422 40.4998 34.1303V42.222C40.4998 42.3101 40.466 42.3909 40.4115 42.4475L40.7719 42.7941L40.4115 42.4475C40.3577 42.5035 40.289 42.5311 40.2216 42.5311H27.7709C27.7036 42.5311 27.6349 42.5035 27.581 42.4475C27.5266 42.3909 27.4927 42.3101 27.4927 42.222V34.1303C27.4927 34.0422 27.5266 33.9614 27.581 33.9048C27.6349 33.8488 27.7036 33.8212 27.7709 33.8212H33.4516H33.9516V33.3212V32.1236C33.9516 32.0355 33.9854 31.9547 34.0399 31.898C34.0937 31.8421 34.1624 31.8145 34.2297 31.8145C34.2971 31.8145 34.3658 31.8421 34.4196 31.898C34.474 31.9546 34.5079 32.0355 34.5079 32.1236V33.3212ZM39.4435 41.9128H39.9435V41.4128V34.9395V34.4395H39.4435H35.0079H34.5079V34.9395V35.2713C34.5079 35.3594 34.474 35.4402 34.4196 35.4968C34.3658 35.5528 34.2971 35.5804 34.2297 35.5804C34.1624 35.5804 34.0937 35.5528 34.0399 35.4968L33.6795 35.8434L34.0399 35.4968C33.9854 35.4402 33.9516 35.3594 33.9516 35.2713V34.9395V34.4395H33.4516H28.5491H28.0491V34.9395V41.4128V41.9128H28.5491H39.4435Z" fill="white" stroke="#D63600"/>
<path d="M32.014 38.3389V38.2061H35.6519V38.3389H32.014Z" fill="white" stroke="#D63600"/>
<path d="M17.4251 27.9494L17.155 28.0892V28.3935V30.74C17.155 30.8282 17.1211 30.909 17.0667 30.9656L17.4206 31.306L17.0667 30.9656C17.0129 31.0216 16.9441 31.0492 16.8768 31.0492C16.8095 31.0492 16.7407 31.0216 16.6869 30.9656C16.6325 30.909 16.5986 30.8282 16.5986 30.74V28.2327C16.5994 28.0749 16.6414 27.9214 16.7186 27.7887C16.7955 27.6567 16.9038 27.5513 17.03 27.4815C18.7558 26.5564 20.6508 26.0305 22.5854 25.9369C22.641 26.1427 22.7066 26.3453 22.7818 26.5441C20.9222 26.607 19.0948 27.0852 17.4251 27.9494Z" fill="white" stroke="#D63600"/>
<path d="M41 28.2309V30.7393C41 30.9539 40.9181 31.1597 40.7721 31.3115C40.6262 31.4632 40.4283 31.5485 40.2219 31.5485C40.0155 31.5485 39.8176 31.4632 39.6716 31.3115C39.5257 31.1597 39.4437 30.9539 39.4437 30.7393V28.3928C37.976 27.6278 36.3781 27.1753 34.7438 27.0594C34.8192 26.9005 34.8882 26.7386 34.9508 26.5741M34.9508 26.5741C36.594 26.7135 38.1981 27.1797 39.6748 27.9494L39.9437 28.0895V28.3928V30.7393C39.9437 30.8275 39.9776 30.9083 40.032 30.9649C40.0858 31.0209 40.1545 31.0485 40.2219 31.0485C40.2892 31.0485 40.3579 31.0209 40.4117 30.9649C40.4662 30.9083 40.5 30.8275 40.5 30.7393V28.2309V28.23C40.5003 28.071 40.4588 27.916 40.3813 27.7821C40.3041 27.6486 40.1948 27.5421 40.0673 27.4719C38.5377 26.6377 36.869 26.1213 35.1541 25.9492C35.0965 26.1609 35.0287 26.3695 34.9508 26.5741Z" fill="white" stroke="#D63600"/>
<path d="M22.3373 24.1049H22.3372L22.3374 24.1141C22.34 24.2583 22.3473 24.4023 22.3591 24.5459C21.7445 24.3736 21.1812 24.0262 20.7362 23.5339C20.1446 22.8795 19.8053 22.0164 19.7889 21.1116C19.8039 20.3725 20.0332 19.6569 20.4444 19.0586C20.8571 18.4582 21.4329 18.005 22.0936 17.7554C22.754 17.5058 23.4708 17.4704 24.1504 17.6533C24.6354 17.7838 25.0867 18.0216 25.4744 18.349C25.305 18.4548 25.1402 18.5682 24.9803 18.6888C24.4853 18.3227 23.8879 18.1202 23.2683 18.1188C22.5231 18.0884 21.7982 18.3567 21.2426 18.863C20.6848 19.3714 20.3408 20.0801 20.2762 20.8396C20.2117 21.599 20.4309 22.3576 20.8925 22.9575C21.2632 23.4393 21.7684 23.7899 22.3373 23.963V23.9636V23.9646V23.9657V23.9668V23.9678V23.9689V23.97V23.971V23.9721V23.9732V23.9743V23.9753V23.9764V23.9775V23.9785V23.9796V23.9807V23.9817V23.9828V23.9839V23.985V23.986V23.9871V23.9882V23.9893V23.9903V23.9914V23.9925V23.9935V23.9946V23.9957V23.9968V23.9978V23.9989V24V24.0011V24.0021V24.0032V24.0043V24.0054V24.0064V24.0075V24.0086V24.0097V24.0107V24.0118V24.0129V24.014V24.015V24.0161V24.0172V24.0183V24.0193V24.0204V24.0215V24.0226V24.0237V24.0247V24.0258V24.0269V24.028V24.029V24.0301V24.0312V24.0323V24.0334V24.0344V24.0355V24.0366V24.0377V24.0388V24.0398V24.0409V24.042V24.0431V24.0442V24.0452V24.0463V24.0474V24.0485V24.0496V24.0506V24.0517V24.0528V24.0539V24.055V24.0561V24.0571V24.0582V24.0593V24.0604V24.0615V24.0626V24.0636V24.0647V24.0658V24.0669V24.068V24.0691V24.0701V24.0712V24.0723V24.0734V24.0745V24.0756V24.0767V24.0777V24.0788V24.0799V24.081V24.0821V24.0832V24.0843V24.0854V24.0864V24.0875V24.0886V24.0897V24.0908V24.0919V24.093V24.0941V24.0951V24.0962V24.0973V24.0984V24.0995V24.1006V24.1017V24.1028V24.1039V24.1049Z" fill="white" stroke="#D63600"/>
<path d="M33.8175 17.5L33.8194 17.5C34.7336 17.4963 35.616 17.8686 36.273 18.5425C36.9296 19.216 37.307 20.1359 37.3171 21.103C37.3103 21.9062 37.0486 22.6825 36.5757 23.3116C36.2591 23.7328 35.8602 24.0717 35.4101 24.309C35.4126 24.2392 35.4141 24.1694 35.4146 24.0996H35.4146L35.4146 24.0968C35.4147 23.9373 35.409 23.7778 35.3974 23.6188C35.7605 23.3841 36.069 23.0692 36.3006 22.6965C36.596 22.2212 36.7549 21.6704 36.7608 21.1077L36.7608 21.1005L36.7607 21.0934C36.7508 20.547 36.5984 20.0123 36.3184 19.5464C36.0382 19.0803 35.6402 18.6995 35.1646 18.4467C34.6888 18.1938 34.1545 18.0793 33.619 18.1168C33.2048 18.1457 32.8035 18.2646 32.4404 18.4632C32.2535 18.3387 32.0607 18.224 31.8627 18.1196C32.0509 17.9883 32.251 17.8761 32.4603 17.7847C32.8906 17.5967 33.352 17.5001 33.8175 17.5Z" fill="white" stroke="#D63600"/>
</svg>
