<svg width="60" height="60" viewBox="0 0 60 60" fill="none" xmlns="http://www.w3.org/2000/svg">
<rect x="1" y="1" width="58" height="58" rx="29" fill="white" stroke="#D63600" stroke-width="2"/>
<path d="M20.5 24.0909C20.5 22.1328 22.1836 20.5 24.3182 20.5C26.4527 20.5 28.1364 22.1328 28.1364 24.0909C28.1364 26.049 26.4527 27.6818 24.3182 27.6818C22.1836 27.6818 20.5 26.049 20.5 24.0909ZM24.3182 21.1364C22.6369 21.1364 21.2273 22.434 21.2273 24.0909C21.2273 25.7478 22.6369 27.0455 24.3182 27.0455C25.9994 27.0455 27.4091 25.7478 27.4091 24.0909C27.4091 22.434 25.9994 21.1364 24.3182 21.1364ZM30.8636 24.0909C30.8636 22.1328 32.5473 20.5 34.6818 20.5C36.8163 20.5 38.5 22.1328 38.5 24.0909C38.5 26.049 36.8163 27.6818 34.6818 27.6818C32.5473 27.6818 30.8636 26.049 30.8636 24.0909ZM34.6818 21.1364C33.0006 21.1364 31.5909 22.434 31.5909 24.0909C31.5909 25.7478 33.0006 27.0455 34.6818 27.0455C36.363 27.0455 37.7727 25.7478 37.7727 24.0909C37.7727 22.434 36.363 21.1364 34.6818 21.1364ZM20.5 33.9091C20.5 31.951 22.1836 30.3182 24.3182 30.3182C26.4527 30.3182 28.1364 31.951 28.1364 33.9091C28.1364 35.8672 26.4527 37.5 24.3182 37.5C22.1836 37.5 20.5 35.8672 20.5 33.9091ZM24.3182 30.9545C22.6369 30.9545 21.2273 32.2522 21.2273 33.9091C21.2273 35.5659 22.6369 36.8636 24.3182 36.8636C25.9994 36.8636 27.4091 35.5659 27.4091 33.9091C27.4091 32.2522 25.9994 30.9545 24.3182 30.9545ZM30.8636 33.9091C30.8636 31.951 32.5473 30.3182 34.6818 30.3182C36.8163 30.3182 38.5 31.951 38.5 33.9091C38.5 35.8671 36.8163 37.5 34.6818 37.5C32.5473 37.5 30.8636 35.8672 30.8636 33.9091ZM34.6818 30.9545C33.0006 30.9545 31.5909 32.2522 31.5909 33.9091C31.5909 35.5659 33.0006 36.8636 34.6818 36.8636C36.363 36.8636 37.7727 35.5659 37.7727 33.9091C37.7727 32.2522 36.363 30.9545 34.6818 30.9545Z" fill="white" stroke="#D63600"/>
</svg>
