<svg width="25" height="26" viewBox="0 0 25 26" fill="none" xmlns="http://www.w3.org/2000/svg">
<path d="M1.74684 0.952891C1.74684 0.700169 1.65482 0.457797 1.49102 0.279095C1.32722 0.100393 1.10506 0 0.873418 0C0.641773 0 0.419616 0.100393 0.255818 0.279095C0.0920206 0.457797 3.45178e-09 0.700169 0 0.952891V24.4575C0 24.9835 0.391291 25.4104 0.873418 25.4104H22.1266C22.3582 25.4104 22.5804 25.31 22.7442 25.1313C22.908 24.9526 23 24.7103 23 24.4575C23 24.2048 22.908 23.9624 22.7442 23.7837C22.5804 23.605 22.3582 23.5046 22.1266 23.5046H1.74684V0.952891Z" fill="#747474"/>
<path d="M24.7652 7.89834C24.9197 7.72404 25.0039 7.4935 24.9999 7.2553C24.9959 7.0171 24.904 6.78983 24.7437 6.62137C24.5834 6.45291 24.3671 6.35641 24.1404 6.35221C23.9138 6.34801 23.6944 6.43643 23.5285 6.59884L16.8552 13.6112L12.5152 9.05072C12.3511 8.87854 12.1287 8.78182 11.8968 8.78182C11.665 8.78182 11.4426 8.87854 11.2785 9.05072L4.27849 16.4064C4.19252 16.4905 4.12357 16.5921 4.07575 16.7048C4.02792 16.8176 4.00221 16.9394 4.00014 17.0628C3.99806 17.1863 4.01968 17.3089 4.06368 17.4234C4.10769 17.5379 4.17319 17.6419 4.25628 17.7292C4.33937 17.8165 4.43834 17.8854 4.5473 17.9316C4.65625 17.9778 4.77295 18.0005 4.89044 17.9984C5.00792 17.9962 5.12379 17.9692 5.23112 17.9189C5.33845 17.8687 5.43505 17.7962 5.51516 17.7059L11.8968 11L16.2368 15.5605C16.4009 15.7327 16.6233 15.8294 16.8552 15.8294C17.087 15.8294 17.3094 15.7327 17.4735 15.5605L24.7652 7.89834Z" fill="#747474"/>
</svg>
