<svg width="33" height="33" viewBox="0 0 33 33" fill="none" xmlns="http://www.w3.org/2000/svg">
<g clip-path="url(#clip0_33_1575)">
<path d="M22.9195 20.7925C22.2104 20.7925 21.6355 21.3673 21.6355 22.0765C21.6355 22.7856 22.2104 23.3605 22.9195 23.3605H27.1996C27.9088 23.3605 28.4836 22.7856 28.4836 22.0765C28.4836 21.3673 27.9088 20.7925 27.1996 20.7925H22.9195Z" fill="#747474"/>
<path d="M3.30304 4.52815C1.13621 4.52815 -0.620361 6.28472 -0.620361 8.45155V24.8585C-0.620361 27.0254 1.13621 28.7819 3.30304 28.7819H29.6968C31.8637 28.7819 33.6202 27.0254 33.6202 24.8585V8.45155C33.6202 6.28472 31.8637 4.52815 29.6968 4.52815H3.30304ZM1.51968 24.8585V13.8016H31.4802V24.8585C31.4802 25.8435 30.6818 26.6419 29.6968 26.6419H3.30304C2.31811 26.6419 1.51968 25.8435 1.51968 24.8585ZM1.51968 11.6616V8.45155C1.51968 7.46662 2.31811 6.66819 3.30304 6.66819H29.6968C30.6818 6.66819 31.4802 7.46662 31.4802 8.45155V11.6616H1.51968Z" fill="#747474"/>
</g>
<defs>
<clipPath id="clip0_33_1575">
<rect width="33" height="33" fill="white"/>
</clipPath>
</defs>
</svg>
