<svg  width="25" height="25" viewBox="0 0 25 25" fill="none" xmlns="http://www.w3.org/2000/svg">
<path d="M12.5 0.833333L13.0423 0.20062C12.7302 -0.0668733 12.2697 -0.0668733 11.9577 0.20062L12.5 0.833333ZM0.833333 10.8333L0.291007 10.2006L0 10.45V10.8333H0.833333ZM9.16667 24.1667V25C9.6269 25 10 24.6268 10 24.1667H9.16667ZM15.8333 24.1667H15C15 24.6268 15.3731 25 15.8333 25V24.1667ZM24.1667 10.8333H25V10.45L24.709 10.2006L24.1667 10.8333ZM2.5 25H9.16667V23.3333H2.5V25ZM24.709 10.2006L13.0423 0.20062L11.9577 1.46605L23.6243 11.4661L24.709 10.2006ZM11.9577 0.20062L0.291007 10.2006L1.37566 11.4661L13.0423 1.46605L11.9577 0.20062ZM10 24.1667V19.1667H8.33333V24.1667H10ZM15 19.1667V24.1667H16.6667V19.1667H15ZM15.8333 25H22.5V23.3333H15.8333V25ZM25 22.5V10.8333H23.3333V22.5H25ZM0 10.8333V22.5H1.66667V10.8333H0ZM12.5 16.6667C13.8807 16.6667 15 17.786 15 19.1667H16.6667C16.6667 16.8655 14.8012 15 12.5 15V16.6667ZM12.5 15C10.1988 15 8.33333 16.8655 8.33333 19.1667H10C10 17.786 11.1193 16.6667 12.5 16.6667V15ZM22.5 25C23.8807 25 25 23.8807 25 22.5H23.3333C23.3333 22.9602 22.9602 23.3333 22.5 23.3333V25ZM2.5 23.3333C2.03977 23.3333 1.66667 22.9602 1.66667 22.5H0C0 23.8807 1.11929 25 2.5 25V23.3333Z" fill="black"/>
</svg>
