<svg width="26" height="26" viewBox="0 0 26 26" fill="none" xmlns="http://www.w3.org/2000/svg">
<g clip-path="url(#clip0_33_1564)">
<path d="M13.9745 14.1613C15.7185 13.4877 18.7553 13.9983 20.7638 14.4684C21.5788 14.6592 22.3251 13.8462 22.026 13.0629L17.8637 2.16507C17.5645 1.38176 16.4689 1.28017 15.9904 1.97049C14.8112 3.67166 12.895 6.09512 11.151 6.76866M13.9745 14.1613L11.151 6.76866M13.9745 14.1613L9.36076 15.9431C7.32258 16.7303 5.35602 16.5472 4.258 13.6723C3.15997 10.7974 4.49909 9.33767 6.53727 8.55052L11.151 6.76866M8.438 16.2995L13.5712 22.1045C13.847 22.4163 14.2874 22.5235 14.6762 22.3733L16.3747 21.7173C17.026 21.4658 17.228 20.6402 16.766 20.1178L12.129 14.874M21.0036 10.3862C22.5326 9.7957 23.2979 8.07606 22.7131 6.54487C22.1283 5.01368 20.415 4.25125 18.886 4.84176M15.3863 17.8575C16.309 17.5012 17.8016 15.8644 17.0957 14.0162" stroke="#747474" stroke-width="1.5"/>
</g>
<defs>
<clipPath id="clip0_33_1564">
<rect width="26" height="26" fill="white"/>
</clipPath>
</defs>
</svg>
