<svg width="23" height="28" viewBox="0 0 23 28" fill="none" xmlns="http://www.w3.org/2000/svg">
<path d="M22.6994 5.50649L17.4721 0.299423C17.273 0.106009 17.0054 -0.00154529 16.7273 1.67799e-05H6.27272C5.71818 1.67799e-05 5.18635 0.219457 4.79423 0.610063C4.40211 1.00067 4.18182 1.53044 4.18182 2.08284V4.16567H2.09091C1.53636 4.16567 1.00453 4.38511 0.612413 4.77572C0.220291 5.16633 0 5.6961 0 6.2485V24.994C0 25.5464 0.220291 26.0761 0.612413 26.4667C1.00453 26.8573 1.53636 27.0768 2.09091 27.0768H16.7273C17.2818 27.0768 17.8136 26.8573 18.2058 26.4667C18.5979 26.0761 18.8182 25.5464 18.8182 24.994V22.9111H20.9091C21.4636 22.9111 21.9954 22.6917 22.3876 22.3011C22.7797 21.9105 23 21.3807 23 20.8283V6.2485C23.0016 5.97143 22.8936 5.70489 22.6994 5.50649ZM16.7273 24.994H2.09091V6.2485H12.1142L16.7273 10.8437V24.994ZM20.9091 20.8283H18.8182V10.4142C18.8197 10.1371 18.7118 9.87054 18.5176 9.67215L13.2903 4.46508C13.0912 4.27167 12.8236 4.16411 12.5454 4.16567H6.27272V2.08284H16.296L20.9091 6.67808V20.8283ZM13.5909 16.6626C13.5909 16.9388 13.4808 17.2037 13.2847 17.399C13.0886 17.5943 12.8227 17.7041 12.5454 17.7041H6.27272C5.99545 17.7041 5.72954 17.5943 5.53348 17.399C5.33741 17.2037 5.22727 16.9388 5.22727 16.6626C5.22727 16.3864 5.33741 16.1216 5.53348 15.9262C5.72954 15.7309 5.99545 15.6212 6.27272 15.6212H12.5454C12.8227 15.6212 13.0886 15.7309 13.2847 15.9262C13.4808 16.1216 13.5909 16.3864 13.5909 16.6626ZM13.5909 20.8283C13.5909 21.1045 13.4808 21.3694 13.2847 21.5647C13.0886 21.76 12.8227 21.8697 12.5454 21.8697H6.27272C5.99545 21.8697 5.72954 21.76 5.53348 21.5647C5.33741 21.3694 5.22727 21.1045 5.22727 20.8283C5.22727 20.5521 5.33741 20.2872 5.53348 20.0919C5.72954 19.8966 5.99545 19.7869 6.27272 19.7869H12.5454C12.8227 19.7869 13.0886 19.8966 13.2847 20.0919C13.4808 20.2872 13.5909 20.5521 13.5909 20.8283Z" fill="#747474"/>
</svg>
