<svg width="25" height="25" viewBox="0 0 25 25" fill="none" xmlns="http://www.w3.org/2000/svg">
<path d="M7.22077 14.7929C8.51759 14.7929 9.56888 15.8453 9.56888 17.1785V21.3523C9.56888 22.6748 8.51607 23.7366 7.22077 23.7366H3.0981C1.81309 23.7366 0.75 22.6729 0.75 21.3523V17.1785C0.75 15.8472 1.81157 14.7929 3.0981 14.7929H7.22077ZM21.2965 14.7929C22.5831 14.7929 23.6446 15.8472 23.6446 17.1785V21.3523C23.6446 22.6729 22.5815 23.7366 21.2965 23.7366H17.1739C15.8786 23.7366 14.8258 22.6748 14.8258 21.3523V17.1785C14.8258 15.8453 15.877 14.7929 17.1739 14.7929H21.2965ZM7.22077 0.75C8.51588 0.75 9.56888 1.81165 9.56888 3.13556V7.30937C9.56888 8.64219 8.51797 9.6937 7.22077 9.6937H3.0981C1.81119 9.6937 0.75 8.64026 0.75 7.30937V3.13556C0.75 1.81358 1.81328 0.75 3.0981 0.75H7.22077ZM21.2965 0.75C22.5813 0.75 23.6446 1.81358 23.6446 3.13556V7.30937C23.6446 8.64025 22.5834 9.6937 21.2965 9.6937H17.1739C15.8767 9.6937 14.8258 8.64219 14.8258 7.30937V3.13556C14.8258 1.81165 15.8787 0.75 17.1739 0.75H21.2965Z" stroke="#747474" stroke-width="1.5"/>
</svg>
