<svg width="24" height="24" viewBox="0 0 24 24" fill="none" xmlns="http://www.w3.org/2000/svg">
<path d="M9.74931 2.82308C10.2581 0.725639 13.2419 0.725639 13.7507 2.82308C13.827 3.13818 13.9767 3.43079 14.1875 3.67711C14.3983 3.92343 14.6643 4.11649 14.9638 4.24059C15.2634 4.36468 15.5879 4.41629 15.9112 4.39123C16.2344 4.36617 16.5472 4.26514 16.824 4.09636C18.667 2.97358 20.7776 5.08297 19.6548 6.92719C19.4863 7.20389 19.3854 7.51646 19.3604 7.83948C19.3354 8.1625 19.387 8.48686 19.5109 8.7862C19.6349 9.08554 19.8277 9.35141 20.0738 9.5622C20.3198 9.77299 20.6121 9.92275 20.9269 9.99931C23.0244 10.5081 23.0244 13.4919 20.9269 14.0007C20.6118 14.077 20.3192 14.2267 20.0729 14.4375C19.8266 14.6483 19.6335 14.9143 19.5094 15.2138C19.3853 15.5134 19.3337 15.8379 19.3588 16.1612C19.3838 16.4844 19.4849 16.7972 19.6536 17.074C20.7764 18.917 18.667 21.0276 16.8228 19.9048C16.5461 19.7363 16.2335 19.6354 15.9105 19.6104C15.5875 19.5854 15.2631 19.637 14.9638 19.7609C14.6645 19.8849 14.3986 20.0777 14.1878 20.3238C13.977 20.5698 13.8273 20.8621 13.7507 21.1769C13.2419 23.2744 10.2581 23.2744 9.74931 21.1769C9.67296 20.8618 9.52329 20.5692 9.31248 20.3229C9.10168 20.0766 8.83569 19.8835 8.53617 19.7594C8.23664 19.6353 7.91205 19.5837 7.58881 19.6088C7.26557 19.6338 6.95281 19.7349 6.676 19.9036C4.83297 21.0264 2.72239 18.917 3.84517 17.0728C4.0137 16.7961 4.11457 16.4835 4.13958 16.1605C4.16458 15.8375 4.11301 15.5131 3.98906 15.2138C3.86511 14.9145 3.67228 14.6486 3.42624 14.4378C3.1802 14.227 2.8879 14.0773 2.57308 14.0007C0.475639 13.4919 0.475639 10.5081 2.57308 9.99931C2.88818 9.92296 3.18079 9.77329 3.42711 9.56248C3.67343 9.35168 3.86649 9.08569 3.99059 8.78617C4.11468 8.48664 4.16629 8.16205 4.14123 7.83881C4.11617 7.51557 4.01514 7.20281 3.84636 6.926C2.72358 5.08297 4.83297 2.97239 6.67719 4.09517C7.87164 4.82139 9.41964 4.17878 9.74931 2.82308Z" stroke="#747474" stroke-width="2" stroke-linecap="round" stroke-linejoin="round"/>
<path d="M11.75 15.5833C13.729 15.5833 15.3333 13.979 15.3333 12C15.3333 10.021 13.729 8.41667 11.75 8.41667C9.77097 8.41667 8.16666 10.021 8.16666 12C8.16666 13.979 9.77097 15.5833 11.75 15.5833Z" stroke="#747474" stroke-width="2" stroke-linecap="round" stroke-linejoin="round"/>
</svg>
