<svg width="24" height="26" viewBox="0 0 24 26" fill="none" xmlns="http://www.w3.org/2000/svg">
<path d="M12.3149 11.2923C11.4714 11.283 10.6493 11.0145 9.95223 10.5205C9.25515 10.0264 8.71422 9.329 8.39755 8.51596C8.08087 7.70293 8.00261 6.81064 8.1726 5.95145C8.3426 5.09225 8.75327 4.30457 9.35289 3.68756C9.95252 3.07055 10.7143 2.6518 11.5423 2.48403C12.3703 2.31627 13.2276 2.40699 14.0061 2.74478C14.7847 3.08256 15.4497 3.6523 15.9175 4.38228C16.3853 5.11225 16.6349 5.96981 16.6349 6.847C16.627 8.03153 16.1679 9.16449 15.3581 9.9977C14.5484 10.8309 13.4541 11.2964 12.3149 11.2923ZM12.3149 3.96148C11.7681 3.9707 11.236 4.14774 10.7857 4.47036C10.3353 4.79298 9.9866 5.24679 9.78345 5.7748C9.5803 6.3028 9.53172 6.88146 9.64383 7.43808C9.75593 7.9947 10.0237 8.50446 10.4135 8.90334C10.8034 9.30222 11.2978 9.57243 11.8349 9.68003C12.3719 9.78763 12.9275 9.72782 13.432 9.50811C13.9364 9.28841 14.3672 8.9186 14.6702 8.44515C14.9732 7.97169 15.1349 7.4157 15.1349 6.847C15.127 6.07615 14.8259 5.33991 14.2975 4.7992C13.7691 4.2585 13.0563 3.95731 12.3149 3.96148Z" fill="#747474"/>
<path d="M12.3149 11.2923C11.4714 11.283 10.6493 11.0145 9.95223 10.5205C9.25515 10.0264 8.71422 9.329 8.39755 8.51596C8.08087 7.70293 8.00261 6.81064 8.1726 5.95145C8.3426 5.09225 8.75327 4.30457 9.35289 3.68756C9.95252 3.07055 10.7143 2.6518 11.5423 2.48403C12.3703 2.31627 13.2276 2.40699 14.0061 2.74478C14.7847 3.08256 15.4497 3.6523 15.9175 4.38228C16.3853 5.11225 16.6349 5.96981 16.6349 6.847C16.627 8.03153 16.1679 9.16449 15.3581 9.9977C14.5484 10.8309 13.4541 11.2964 12.3149 11.2923ZM12.3149 3.96148C11.7681 3.9707 11.236 4.14774 10.7857 4.47036C10.3353 4.79298 9.9866 5.24679 9.78345 5.7748C9.5803 6.3028 9.53172 6.88146 9.64383 7.43808C9.75593 7.9947 10.0237 8.50446 10.4135 8.90334C10.8034 9.30222 11.2978 9.57243 11.8349 9.68003C12.3719 9.78763 12.9275 9.72782 13.432 9.50811C13.9364 9.28841 14.3672 8.9186 14.6702 8.44515C14.9732 7.97169 15.1349 7.4157 15.1349 6.847C15.127 6.07615 14.8259 5.33991 14.2975 4.7992C13.7691 4.2585 13.0563 3.95731 12.3149 3.96148Z" fill="#747474"/>
<path d="M14.9322 12.3381C11.6056 11.7362 8.18095 12.284 5.18217 13.8978C4.9693 14.0207 4.79304 14.2021 4.67266 14.4222C4.55229 14.6423 4.49244 14.8925 4.49967 15.1456V17.922C4.49967 18.1288 4.57869 18.3272 4.71934 18.4734C4.85999 18.6197 5.05076 18.7018 5.24967 18.7018C5.44858 18.7018 5.63935 18.6197 5.78 18.4734C5.92066 18.3272 5.99967 18.1288 5.99967 17.922V15.247C8.78043 13.7962 11.9427 13.3358 14.9997 13.9368L14.9322 12.3381Z" fill="#747474"/>
<path d="M23.2498 15.7304H18.2248V14.5762C18.2248 14.3693 18.1458 14.171 18.0051 14.0247C17.8645 13.8785 17.6737 13.7963 17.4748 13.7963C17.2759 13.7963 17.0851 13.8785 16.9444 14.0247C16.8038 14.171 16.7248 14.3693 16.7248 14.5762V15.7304H11.2498C11.0508 15.7304 10.8601 15.8125 10.7194 15.9588C10.5788 16.1051 10.4998 16.3034 10.4998 16.5102V24.309C10.4998 24.5158 10.5788 24.7142 10.7194 24.8604C10.8601 25.0067 11.0508 25.0888 11.2498 25.0888H23.2498C23.4487 25.0888 23.6395 25.0067 23.7801 24.8604C23.9208 24.7142 23.9998 24.5158 23.9998 24.309V16.5102C23.9998 16.3034 23.9208 16.1051 23.7801 15.9588C23.6395 15.8125 23.4487 15.7304 23.2498 15.7304ZM22.4998 23.5291H11.9998V17.2901H16.7248V17.6099C16.7248 17.8167 16.8038 18.0151 16.9444 18.1613C17.0851 18.3076 17.2759 18.3897 17.4748 18.3897C17.6737 18.3897 17.8645 18.3076 18.0051 18.1613C18.1458 18.0151 18.2248 17.8167 18.2248 17.6099V17.2901H22.4998V23.5291Z" fill="#747474"/>
<path d="M19.3273 19.9565H14.8573V21.0483H19.3273V19.9565Z" fill="#747474"/>
<path d="M6.63002 8.1189C4.5536 8.15502 2.51318 8.68877 0.667502 9.67864C0.466773 9.78889 0.298634 9.95379 0.181062 10.1557C0.0634894 10.3576 0.000905138 10.589 0 10.8251V13.2427C0 13.4495 0.0790178 13.6479 0.219671 13.7941C0.360323 13.9404 0.551089 14.0225 0.750002 14.0225C0.948915 14.0225 1.13968 13.9404 1.28033 13.7941C1.42099 13.6479 1.5 13.4495 1.5 13.2427V10.981C3.26348 10.0683 5.21594 9.62099 7.18502 9.67864C6.92739 9.18987 6.74039 8.66432 6.63002 8.1189Z" fill="#747474"/>
<path d="M23.3325 9.67016C21.6771 8.76723 19.8579 8.23585 17.9925 8.11041C17.8826 8.65487 17.6983 9.18013 17.445 9.67016C19.2023 9.71389 20.9285 10.1613 22.5 10.9803V13.242C22.5 13.4488 22.579 13.6472 22.7197 13.7934C22.8603 13.9397 23.0511 14.0218 23.25 14.0218C23.4489 14.0218 23.6397 13.9397 23.7803 13.7934C23.921 13.6472 24 13.4488 24 13.242V10.8244C24.0005 10.587 23.9385 10.354 23.8209 10.1506C23.7032 9.94715 23.5343 9.78103 23.3325 9.67016Z" fill="#747474"/>
<path d="M6.49472 6.84776C6.49472 6.66839 6.49472 6.49682 6.49472 6.32525C5.90718 6.24349 5.3726 5.92926 5.00227 5.44797C4.63193 4.96668 4.45438 4.35541 4.50656 3.74142C4.55875 3.12743 4.83665 2.55802 5.28243 2.15173C5.7282 1.74544 6.3075 1.53357 6.89972 1.56023C7.51571 1.55907 8.10777 1.80813 8.54972 2.25432C8.93964 1.91989 9.36791 1.63699 9.82473 1.41206C9.31443 0.801929 8.63832 0.366902 7.88551 0.164316C7.13269 -0.0382701 6.33851 0.00109338 5.60765 0.277218C4.87678 0.553343 4.24352 1.05327 3.79136 1.7111C3.33919 2.36893 3.08933 3.1538 3.07471 3.96224C3.09045 4.9517 3.46036 5.89953 4.11219 6.62058C4.76401 7.34164 5.65094 7.78412 6.59972 7.8616C6.53609 7.52752 6.50096 7.18826 6.49472 6.84776Z" fill="#747474"/>
<path d="M17.0773 3.12543e-05C16.5619 0.000149239 16.0517 0.107112 15.5765 0.314666C15.1013 0.522221 14.6707 0.8262 14.3098 1.20883C14.8168 1.39988 15.2963 1.66228 15.7348 1.9887C16.085 1.73597 16.4945 1.58678 16.9198 1.55705C17.345 1.52732 17.7701 1.61816 18.1496 1.81988C18.5291 2.0216 18.8489 2.32664 19.0748 2.70248C19.3007 3.07832 19.4243 3.51086 19.4323 3.95398C19.4276 4.40914 19.299 4.85361 19.0614 5.23592C18.8238 5.61823 18.487 5.92275 18.0898 6.11423C18.12 6.35471 18.135 6.59699 18.1348 6.83951C18.1328 7.15299 18.1077 7.46585 18.0598 7.77535C18.8769 7.55694 19.6016 7.06378 20.1211 6.37264C20.6406 5.68151 20.9258 4.83117 20.9323 3.95398C20.9224 2.89905 20.5114 1.89107 19.7891 1.15022C19.0668 0.409364 18.0919 -0.00413999 17.0773 3.12543e-05Z" fill="#747474"/>
</svg>
