<svg width="24" height="28" viewBox="0 0 24 28" fill="none" xmlns="http://www.w3.org/2000/svg">
<path d="M14.2112 24.2548C14.2112 24.5098 14.1225 24.7543 13.9645 24.9347C13.8066 25.115 13.5924 25.2163 13.369 25.2163H6.63199C6.40864 25.2163 6.19444 25.115 6.03651 24.9347C5.87858 24.7543 5.78985 24.5098 5.78985 24.2548C5.78985 23.9997 5.87858 23.7552 6.03651 23.5748C6.19444 23.3945 6.40864 23.2932 6.63199 23.2932H13.369C13.5924 23.2932 13.8066 23.3945 13.9645 23.5748C14.1225 23.7552 14.2112 23.9997 14.2112 24.2548ZM19.7798 20.4086C19.6324 20.7025 19.4192 20.9465 19.1621 21.1154C18.905 21.2844 18.6132 21.3723 18.3166 21.3701H1.68446C1.38776 21.3702 1.09631 21.2807 0.839621 21.1108C0.582928 20.9409 0.370095 20.6966 0.222661 20.4027C0.0752266 20.1087 -0.00157638 19.7754 2.45244e-05 19.4367C0.00162542 19.0979 0.0815734 18.7657 0.231777 18.4735C0.85285 17.2475 1.60024 14.9158 1.60024 10.7932V9.83168C1.59886 8.57055 1.81504 7.32145 2.23645 6.15571C2.65785 4.98997 3.27623 3.93042 4.05626 3.03755C4.8363 2.14468 5.76273 1.43598 6.78264 0.951904C7.80256 0.467831 8.896 0.217871 10.0005 0.216293H10.0637C14.6638 0.252351 18.4008 4.61533 18.4008 9.93985V10.7932C18.4008 14.9158 19.1482 17.2475 19.7693 18.4735C19.9186 18.767 19.9981 19.1 20 19.4395C20.0018 19.7789 19.9259 20.113 19.7798 20.4086ZM18.3166 19.4471C17.5902 18.0048 16.7165 15.3485 16.7165 10.7932V9.93985C16.7165 5.67302 13.727 2.16341 10.0532 2.13937H10.0005C9.11678 2.13937 8.24174 2.3385 7.42554 2.72537C6.60934 3.11224 5.86804 3.67923 5.24412 4.39385C4.62021 5.10846 4.12595 5.95664 3.78968 6.88978C3.45341 7.82291 3.28174 8.82265 3.28451 9.83168V10.7932C3.28451 15.3485 2.4108 18.0048 1.68446 19.4471H18.3166Z" fill="#747474"/>
<path d="M9.92543 27.7837C10.6533 27.783 11.3675 27.5344 11.9922 27.0644C12.6169 26.5943 13.1289 25.9203 13.4737 25.1139C13.49 25.0753 13.498 25.032 13.497 24.9883C13.496 24.9446 13.4861 24.9019 13.4682 24.8645C13.4502 24.8271 13.4249 24.7961 13.3946 24.7746C13.3643 24.7531 13.3302 24.7419 13.2954 24.7419H6.55645C6.52165 24.7418 6.48742 24.753 6.45708 24.7744C6.42674 24.7958 6.40133 24.8268 6.38333 24.8642C6.36532 24.9017 6.35533 24.9444 6.35433 24.9881C6.35333 25.0319 6.36136 25.0752 6.37762 25.1139C6.72245 25.9202 7.2343 26.5942 7.85891 27.0642C8.48352 27.5342 9.1976 27.7829 9.92543 27.7837Z" fill="#747474"/>
<g filter="url(#filter0_d_33_1552)">
<ellipse cx="3.00044" cy="3.01094" rx="3.00044" ry="3.01094" transform="matrix(0.980415 -0.196941 0.195513 0.980701 12.9255 5.87523)" fill="#FF0000"/>
<path d="M18.9074 7.74471C19.1788 9.10631 18.2991 10.428 16.9468 10.6996C15.5945 10.9713 14.2759 10.0912 14.0044 8.72959C13.733 7.36798 14.6127 6.04631 15.965 5.77467C17.3173 5.50303 18.6359 6.3831 18.9074 7.74471Z" stroke="white"/>
</g>
<defs>
<filter id="filter0_d_33_1552" x="9.45532" y="2.22519" width="14.0012" height="14.0239" filterUnits="userSpaceOnUse" color-interpolation-filters="sRGB">
<feFlood flood-opacity="0" result="BackgroundImageFix"/>
<feColorMatrix in="SourceAlpha" type="matrix" values="0 0 0 0 0 0 0 0 0 0 0 0 0 0 0 0 0 0 127 0" result="hardAlpha"/>
<feOffset dy="1"/>
<feGaussianBlur stdDeviation="2"/>
<feComposite in2="hardAlpha" operator="out"/>
<feColorMatrix type="matrix" values="0 0 0 0 0 0 0 0 0 0 0 0 0 0 0 0 0 0 0.13 0"/>
<feBlend mode="normal" in2="BackgroundImageFix" result="effect1_dropShadow_33_1552"/>
<feBlend mode="normal" in="SourceGraphic" in2="effect1_dropShadow_33_1552" result="shape"/>
</filter>
</defs>
</svg>
