<svg width="25" height="19" viewBox="0 0 25 19" fill="none" xmlns="http://www.w3.org/2000/svg">
<path d="M18.554 9.30908C18.6451 9.00703 18.5573 8.65373 18.2981 8.44264L18.2725 9.31167M18.554 9.30908L17.9951 8.28955C18.1132 8.32147 18.214 8.37436 18.2971 8.44187L18.2725 9.31167M18.554 9.30908C18.4608 9.31345 18.3669 9.31434 18.2725 9.31167M18.554 9.30908L18.1646 9.30696C18.2004 9.30904 18.2364 9.31061 18.2725 9.31167M5.18283 1.93744C3.73716 2.34938 2.61671 3.99501 3.08241 5.9683L5.18283 1.93744ZM5.18283 1.93744C4.78183 2.91656 4.5636 3.99374 4.5636 5.1171C4.5636 6.20875 4.7691 7.25507 5.14909 8.20961C4.1736 7.93367 3.35514 7.12173 3.08247 5.96858L5.18283 1.93744ZM22.2976 15.1606C22.2227 15.1953 22.1467 15.2271 22.071 15.256C21.9849 13.963 21.5081 12.9407 20.9275 12.1585C21.1543 12.1953 21.3354 12.2318 21.4537 12.263L21.4777 12.2694L21.5021 12.2745C22.5689 12.5003 22.9949 12.9024 23.1428 13.2429L23.1427 13.243L23.1471 13.2528C23.3117 13.6211 23.3114 14.0525 23.1474 14.419L23.144 14.4265L23.1408 14.434C23.0264 14.7013 22.7474 14.9523 22.2976 15.1606ZM21.1883 5.96841C20.9157 7.12171 20.0972 7.93376 19.1216 8.20972C19.5016 7.25518 19.7071 6.20886 19.7071 5.1172C19.7071 3.99397 19.4889 2.9169 19.088 1.93787C20.5331 2.35033 21.6531 3.99554 21.1883 5.96841ZM2.81445 12.2629C2.93356 12.2317 3.11548 12.1953 3.34295 12.1586C2.76217 12.9407 2.28522 13.963 2.19917 15.2561C2.12382 15.2272 2.04823 15.1956 1.97359 15.161C1.52387 14.9528 1.24486 14.7017 1.13045 14.4344L1.12709 14.4266L1.1236 14.4188C0.958801 14.0513 0.958802 13.6219 1.1236 13.2544L1.12366 13.2544L1.12846 13.2434C1.27647 12.9024 1.70201 12.5004 2.769 12.2737L2.79185 12.2688L2.81445 12.2629ZM12.079 13.5158C13.9464 13.5158 15.5493 13.6796 16.6534 14.0972C17.1961 14.3025 17.554 14.5457 17.7718 14.8008C17.9733 15.0366 18.0964 15.329 18.0964 15.7467C18.0964 16.1658 17.9734 16.4609 17.7718 16.6991C17.5543 16.9561 17.1976 17.2012 16.6569 17.4086C15.5566 17.8306 13.9548 18 12.079 18C10.2117 18 8.60871 17.8362 7.50452 17.4187C6.96178 17.2134 6.6039 16.9703 6.38608 16.7154C6.18468 16.4796 6.0616 16.1875 6.0616 15.7702C6.0616 15.3507 6.18471 15.0554 6.38636 14.817C6.60381 14.5599 6.96055 14.3147 7.5012 14.1073C8.6015 13.6852 10.2032 13.5158 12.079 13.5158ZM12.079 1C14.031 1 15.7227 2.71164 15.7227 5.02651C15.7227 7.34075 14.0306 9.05409 12.079 9.05409C10.1274 9.05409 8.43531 7.34075 8.43531 5.02651C8.43531 2.71164 10.127 1 12.079 1Z" stroke="#747474" stroke-width="2"/>
</svg>
